<?xml version="1.0" encoding="utf-8"?>
<!-- Generator: Adobe Illustrator 24.3.0, SVG Export Plug-In . SVG Version: 6.00 Build 0)  -->
<svg version="1.1" id="Layer_1" xmlns="http://www.w3.org/2000/svg" xmlns:xlink="http://www.w3.org/1999/xlink" x="0px" y="0px"
	 viewBox="0 0 1224 792" style="enable-background:new 0 0 1224 792;" xml:space="preserve">
<style type="text/css">
	.st0{fill:#FFFFFF;}
	.st1{fill-rule:evenodd;clip-rule:evenodd;fill:#5D87A1;}
	.st2{fill:#00758F;}
	.st3{fill:#F29111;}
	.st4{fill-rule:evenodd;clip-rule:evenodd;fill:#F29111;}
	.st5{fill-rule:evenodd;clip-rule:evenodd;fill:#00758F;}
</style>
<rect x="488.1" y="318.09" class="st0" width="239.49" height="165.99"/>
<path class="st1" d="M635.87,359.77c-0.79,0-1.35,0.1-1.92,0.23v0.09h0.09c0.38,0.75,1.03,1.27,1.5,1.92
	c0.38,0.75,0.7,1.5,1.08,2.24c0.05-0.05,0.09-0.09,0.09-0.09c0.66-0.47,0.99-1.21,0.99-2.34c-0.28-0.33-0.33-0.65-0.56-0.98
	C636.85,360.38,636.24,360.14,635.87,359.77"/>
<g>
	<path class="st2" d="M561.41,452.15h-6.48c-0.23-10.94-0.86-21.23-1.89-30.87h-0.06l-9.87,30.87h-4.94l-9.81-30.87h-0.06
		c-0.73,9.26-1.19,19.55-1.38,30.87h-5.91c0.38-13.77,1.34-26.68,2.87-38.74h8.04l9.35,28.46h0.06l9.41-28.46h7.69
		C560.11,427.53,561.1,440.45,561.41,452.15"/>
	<path class="st2" d="M589.52,423.58c-2.64,14.32-6.12,24.73-10.44,31.23c-3.37,5-7.06,7.51-11.08,7.51c-1.07,0-2.39-0.32-3.96-0.96
		v-3.45c0.77,0.11,1.66,0.17,2.7,0.17c1.87,0,3.38-0.52,4.53-1.55c1.38-1.26,2.06-2.68,2.06-4.25c0-1.07-0.54-3.27-1.61-6.6
		l-7.12-22.09h6.37l5.11,16.52c1.15,3.75,1.63,6.37,1.43,7.86c2.79-7.46,4.74-15.59,5.85-24.39H589.52z"/>
	<polygon class="st3" points="675.83,452.15 657.41,452.15 657.41,413.42 663.61,413.42 663.61,447.39 675.83,447.39 	"/>
	<path class="st4" d="M652.59,453.09l-7.12-3.51c0.63-0.52,1.24-1.08,1.78-1.73c3.02-3.55,4.54-8.81,4.54-15.78
		c0-12.81-5.03-19.23-15.09-19.23c-4.93,0-8.78,1.62-11.54,4.88c-3.02,3.56-4.53,8.8-4.53,15.72c0,6.81,1.34,11.8,4.02,14.98
		c2.45,2.87,6.14,4.3,11.08,4.3c1.84,0,3.53-0.23,5.07-0.68l9.27,5.4L652.59,453.09z M629.52,444.4c-1.57-2.52-2.35-6.58-2.35-12.16
		c0-9.75,2.97-14.63,8.89-14.63c3.1,0,5.38,1.17,6.83,3.5c1.57,2.53,2.35,6.54,2.35,12.05c0,9.83-2.97,14.75-8.89,14.75
		C633.25,447.91,630.97,446.74,629.52,444.4"/>
	<path class="st3" d="M617.92,441.42c0,3.29-1.21,5.98-3.61,8.09c-2.41,2.1-5.64,3.15-9.69,3.15c-3.79,0-7.46-1.21-11.02-3.62
		l1.66-3.33c3.06,1.53,5.83,2.29,8.32,2.29c2.33,0,4.16-0.52,5.48-1.54c1.32-1.03,2.11-2.47,2.11-4.3c0-2.3-1.6-4.27-4.55-5.91
		c-2.72-1.49-8.15-4.6-8.15-4.6c-2.94-2.15-4.42-4.45-4.42-8.24c0-3.14,1.1-5.67,3.3-7.6c2.2-1.93,5.04-2.9,8.52-2.9
		c3.6,0,6.87,0.96,9.81,2.87l-1.5,3.32c-2.52-1.07-5-1.6-7.46-1.6c-1.99,0-3.52,0.48-4.59,1.44c-1.07,0.95-1.74,2.18-1.74,3.67
		c0,2.29,1.64,4.28,4.66,5.96c2.75,1.49,8.31,4.67,8.31,4.67C616.42,435.37,617.92,437.65,617.92,441.42"/>
	<path class="st5" d="M683.61,400.44c-3.75-0.09-6.65,0.28-9.08,1.31c-0.7,0.28-1.82,0.28-1.92,1.17c0.38,0.37,0.42,0.98,0.75,1.5
		c0.56,0.94,1.54,2.2,2.43,2.85c0.98,0.75,1.97,1.5,3,2.15c1.82,1.13,3.88,1.78,5.66,2.9c1.03,0.65,2.06,1.5,3.09,2.2
		c0.51,0.37,0.84,0.98,1.5,1.21v-0.14c-0.33-0.42-0.42-1.03-0.75-1.5c-0.47-0.46-0.94-0.89-1.41-1.35
		c-1.36-1.83-3.04-3.42-4.87-4.73c-1.5-1.03-4.78-2.44-5.38-4.16c0,0-0.05-0.05-0.09-0.1c1.03-0.09,2.25-0.47,3.23-0.75
		c1.59-0.42,3.04-0.33,4.68-0.75c0.75-0.19,1.5-0.42,2.25-0.65v-0.42c-0.85-0.84-1.45-1.97-2.34-2.76
		c-2.38-2.06-5.01-4.07-7.72-5.76c-1.45-0.94-3.33-1.54-4.87-2.34c-0.56-0.28-1.49-0.42-1.82-0.89c-0.84-1.03-1.31-2.38-1.92-3.6
		c-1.36-2.57-2.67-5.42-3.84-8.14c-0.84-1.82-1.36-3.65-2.39-5.33c-4.82-7.96-10.06-12.78-18.11-17.5
		c-1.73-0.98-3.79-1.41-5.99-1.92c-1.17-0.05-2.34-0.14-3.51-0.19c-0.75-0.33-1.5-1.22-2.15-1.64c-2.67-1.68-9.55-5.33-11.51-0.51
		c-1.26,3.04,1.87,6.04,2.95,7.58c0.79,1.08,1.83,2.29,2.38,3.51c0.33,0.8,0.42,1.64,0.75,2.48c0.75,2.06,1.45,4.35,2.43,6.27
		c0.51,0.98,1.07,2.01,1.73,2.9c0.38,0.52,1.03,0.75,1.17,1.59c-0.65,0.93-0.7,2.34-1.08,3.51c-1.68,5.29-1.03,11.84,1.36,15.73
		c0.75,1.17,2.53,3.75,4.92,2.76c2.11-0.84,1.64-3.51,2.25-5.85c0.14-0.57,0.05-0.94,0.33-1.31v0.09c0.65,1.31,1.31,2.57,1.92,3.88
		c1.45,2.29,3.98,4.68,6.09,6.27c1.12,0.85,2.01,2.29,3.41,2.81v-0.14h-0.09c-0.28-0.42-0.7-0.61-1.08-0.93
		c-0.84-0.84-1.78-1.87-2.43-2.81c-1.96-2.62-3.7-5.52-5.24-8.52c-0.75-1.45-1.4-3.04-2.01-4.49c-0.28-0.56-0.28-1.4-0.75-1.68
		c-0.7,1.03-1.73,1.92-2.25,3.18c-0.89,2.01-0.98,4.5-1.31,7.07c-0.19,0.05-0.09,0-0.19,0.09c-1.5-0.37-2.01-1.92-2.57-3.22
		c-1.4-3.33-1.64-8.66-0.42-12.5c0.33-0.98,1.73-4.07,1.17-5.01c-0.28-0.89-1.22-1.4-1.73-2.11c-0.61-0.89-1.27-2.01-1.68-3
		c-1.12-2.62-1.69-5.52-2.9-8.14c-0.56-1.22-1.55-2.48-2.34-3.6c-0.89-1.26-1.87-2.15-2.58-3.65c-0.23-0.52-0.56-1.36-0.19-1.92
		c0.09-0.38,0.28-0.52,0.66-0.61c0.61-0.51,2.34,0.14,2.95,0.42c1.73,0.7,3.18,1.36,4.63,2.34c0.66,0.47,1.36,1.36,2.2,1.59h0.98
		c1.5,0.32,3.18,0.09,4.59,0.51c2.48,0.8,4.72,1.97,6.74,3.23c6.13,3.89,11.18,9.41,14.6,16.01c0.56,1.07,0.8,2.06,1.31,3.18
		c0.98,2.3,2.2,4.64,3.18,6.88c0.98,2.2,1.92,4.44,3.33,6.27c0.7,0.98,3.51,1.5,4.77,2.01c0.93,0.42,2.39,0.79,3.23,1.31
		c1.59,0.98,3.18,2.11,4.68,3.18C681.12,398.34,683.46,399.5,683.61,400.44"/>
	<path class="st3" d="M688.07,452.15h0.97v-4.75h-1.46l-1.19,3.24l-1.29-3.24h-1.4v4.75h0.92v-3.61h0.05l1.35,3.61h0.7l1.35-3.61
		V452.15z M680.25,452.15h1.03v-3.94h1.34v-0.81h-3.77v0.81h1.4V452.15z"/>
</g>
</svg>
