<svg xmlns="http://www.w3.org/2000/svg" xmlns:xlink="http://www.w3.org/1999/xlink" viewBox="0 0 107.16 107.16"><defs><style>.a{isolation:isolate;}.b{fill:url(#a);}.c{mix-blend-mode:overlay;}.d{fill:url(#b);}.e{opacity:0.72;mix-blend-mode:multiply;}.f{fill:#e6e6e6;}</style><radialGradient id="a" cx="59.18" cy="-534.29" r="80.92" gradientTransform="matrix(0.76, 0.65, -0.65, 0.76, -342.36, 381)" gradientUnits="userSpaceOnUse"><stop offset="0.07" stop-color="#fff"/><stop offset="0.37" stop-color="#fdfdfd"/><stop offset="0.53" stop-color="#f5f5f5"/><stop offset="0.66" stop-color="#e7e7e7"/><stop offset="0.77" stop-color="#d4d4d4"/><stop offset="0.87" stop-color="#bbb"/><stop offset="0.94" stop-color="#a3a3a3"/></radialGradient><radialGradient id="b" cx="86.12" cy="-506.53" r="53.58" gradientTransform="matrix(0.76, 0.65, -0.65, 0.76, -342.36, 381)" gradientUnits="userSpaceOnUse"><stop offset="0.9" stop-color="gray"/><stop offset="1" stop-color="#cdcdcc"/></radialGradient></defs><g class="a"><path class="b" d="M94.16,88.56A53.58,53.58,0,1,1,88.56,13,53.59,53.59,0,0,1,94.16,88.56Z"/><g class="c"><path class="d" d="M94.16,88.56A53.58,53.58,0,1,1,88.56,13,53.59,53.59,0,0,1,94.16,88.56Z"/></g><g class="e"><path class="f" d="M101.26,33.4c0-.12-.21-.54-.22-.66s.73,0,.76.13c0-.15-.35-.1-.39-.2-.12-.59-.14-1.56-.65-1.27-.07-.82-.35.23-1.31-1.53-.12.11-.54-2.11-1.5-3.47-.37-.64-.82-.69-1.27-1-.61.9-.06,1.58.25,2.45-.89.45-1.26,1-.7,1.95.21-.07.36.2.48.16a7.33,7.33,0,0,0-.46,1.83c1.12-.52.85.87,1.37,1.65.29.44,1.36.35,1.63.71s-.06,1.16.23,1.58A10.9,10.9,0,0,1,101,38.27a18.19,18.19,0,0,0,1.25,2.91c.73-.64.34-2.82-.11-4.44,0,0,.67-.16.7-.15s-.76.11-.79,0-.07-.41-.13-.57,1,0,1.19,0c-.15-.25-1-.71-1.18-1.14,0,0,.24,0,.29-.14C102.51,34.24,101.81,33.74,101.26,33.4Z"/><path class="f" d="M95.23,26.37l-.07.05s0,.31,0,.36c.33.38-.11,1.3.83,1.13a14.22,14.22,0,0,0-1.48-3.07s.52-.28.52-.29-.34,0-.37,0a6.28,6.28,0,0,0-1.42-1.92c.14-.06.86-.69,1-.7.07.16.15.4.23.56.09-.09.2.24.2.11a1.71,1.71,0,0,0,.47-.38C95,21.86,94,22,93.68,21.75c.1,0,1.08-.5,1.14-.51C94.65,21,93.6,20.6,93,20a1,1,0,0,0-.17-.18c-.09-.1-.24-.13-.35-.21a3.71,3.71,0,0,0-1.63-1s-.13-.51-.13-.5,0-.11-.11-.13l.29-.53c-.15-.09-.34.18-.51.15.54.86-.26,1.48-1.33.51.17.52.28.45.41.78,0,.05.61.33.58.38s-.12-.44-.14-.44c-.25-.6-.51-1.13-.87-1.24-.21-.19-.83.61-1,.64-.38-.22-.54-.48-.46-.26,0,0,.35-.51.32-.53-.32-.18-1,.16-1.3,0-.56-.33-2.93-1.48-3.45-1.3A9.7,9.7,0,0,0,85,17.89,10.53,10.53,0,0,0,87.19,19c.85.37,3.29.89,2.34,2.32.55.49.5,1.27,1.29.63.51.79,1,2.23,2,2,.23.94.86.67,1.48,1.12.16.24-.12.91,0,1s.16.56.37.71C94.68,26.89,95.19,26.33,95.23,26.37Z"/><path class="f" d="M78,30.51c-.18,1.4-.55,1.3.71,2.48,1.07,1,1.64.53,2.87.73,1,.16,1.69,1.31,2.8.6s0-1.33,0-2c.1-.09.52.46.62.37.16.15.92,0,1.06.13,0-.26.08-.71.11-1,.26-.3-.1-1.47.11-1.78.42.25.6.94.85,1.38.81-.77.58-1.1.28-1.85a2.39,2.39,0,0,0,.46-.12,2.37,2.37,0,0,0-.36-.45c0-.08.08.23.07.14s-.18-.19-.17-.32c.2-.36.57-.72.12-1.39-.2-.29-1-.11-1.33-.28-.17-1,1.48-1,.73-1.88-1.62-2.44-2.9.21-3.09.77-.46-1.92-1.14-3.53-2.82-3.7-.46-.29-1.11-.11-1.9-.1s-3.15-.56-3.79.06c.5,1,1.51.36,2.27.67,0,0-.59.81-.58.81l.28-.19c.1.05.11.2.22.25.32.27.71.19,1.25.09.13.07.64,0,.76.07.3.74.44,2.32,1.21,2.05.41.46.24.19.36.91-.41.12-1.5-.89-1.54-.93s-.44-.06-.72.63c-.17-.2,0,.16-.1.12s0-.38-.08-.54a2.1,2.1,0,0,0-.51-1.31,10,10,0,0,0-.45-.92c-.23.19-.46,1.07-.65.88-.06,0,.21-.24.18-.17-.54-.05-.87-.05-.92.55-.07.82,2.31,1.25,2.11,2.23-.07.09-.61,0-.66,0-.39,0-.73-1-1.29-.46a24.74,24.74,0,0,0-1.08,2.31A2,2,0,0,0,78,30.51Z"/><path class="f" d="M92.17,33.81,92,34c.23.51.87.73,1.18,1.16,0,0-.33.18-.35.17A12.51,12.51,0,0,1,93,36.74s.59.08.58.09c-.36,1.44-1.08.25-2.11,0-.23.94.77,1,1.06,1.71.22.52.31,1.22.54,1.81a6.89,6.89,0,0,1-.86.43c-1.07-1.39-.76-1.86-1.17-1.48-.41.18-1-.46-1.22-.1A1.35,1.35,0,0,0,88,39.15c-1.84-.13-4.43,1-3.55,1.77a2.06,2.06,0,0,1-.93-.32c.09-.13.2-.23.2-.34s.66-.52.22-.85c0,.08-.28,1-.29,1-.54-.19-1.76-.34-1.63.65a6.27,6.27,0,0,1,1.62,1.8c.23.53.73.81.76,1.27,0,.11.29.58.23.67s-.52-.28-.42-.13-.48.06-.5.08c0-.3.22-.62.08-.88-.11-.65,0-1.15-.72-.19a2.14,2.14,0,0,0,.57,2.65c0,.07-.46-.18-.45-.1a2.07,2.07,0,0,0,0,1.43c0,.05.71-.68.7-.65-.25-.12-.85.52-1.06.39a5.86,5.86,0,0,1-.9-.56c-.63-1.34.31-4.12,0-5.19-.74.62-.8.81-.77.25-.07,0-2.24,2.29-2.48,2.63.1-.16.56-.46.54-.85a1.63,1.63,0,0,0,.1-.73l-1.11.23c-.06-.47-.21-1.12-.31-1.53.14.1.84-.06.92-.06.55,0,.41-.56,1-.65-.11-.34-.1-.54-.27-.69s-.36-.17-.86-.32c.82-.53.71,1.28,1-.83,0-.12.31-.23.3-.34s.26-.16.27-.21l-.64.08c-.1-.5-.6-.55-1.1-1.08-.39.25-.38.9-.51,1.36a7.21,7.21,0,0,1-1.29-1,2.41,2.41,0,0,1-.86-.91c-.68.21-1.33,1-1.08,1.62,0,0,.33-.6.29-.58a1.48,1.48,0,0,1-.85-.63,3.17,3.17,0,0,0-.92-1s.42-.06.41,0c-.2-.43-1-.61-1.16-1.21-1,.43-.31,1.26-.41,1.31-1-.63-2.12.57-2.27.51.06,0,.52,1.19.78,1.44-1.58-1.11-1.21,1.52-1,1.91-.56-.13-1.07-.69-.76.2-1.48-.51-1.92.13-2.77.14.09-.08-.13-.09,0-.13-.07-.89-.31-2-1.14-.71-.28-.11,0-.14-.13-.32.17,0-.23-.41-.26-.68,1-.58-.5-1.62-1-2.24a4.65,4.65,0,0,0-.72,1c-.23-.53,0-1.37-.22-1.87-.87.17-.3-1.35-.65-1.88-.53-.79-1.36-.46-2.31-.8a3.43,3.43,0,0,1,1-1.07c-.34-1.06-.72-.38-1.39-.45s-1.29-1-2-.76c.06.23.61,1.09.69,1.31-.08,0-.14,0-.19,0-.12.28-.58.38-.81.58-.36-.44.17-1.4.52-1.82-.5-.09-.95.43-1.09.84A3.93,3.93,0,0,1,55.59,30c-.6.23.41,1.95-1,.9,1.09-3.88-.6-.6-1.32,1.62-.31-.4-.66-.95-.95-1.4-.29.26-.73.46-.94.85-.1-.19-.85-.71-.94-.91-.16.57.35,2.85-.72,2.56s-.15-1.72-.19-2.44c-.68.48-1.67.24-2.23.45-.12-.72.11-1.83-.61-1.66.46,1.11-.39,1.89-.66,3,0,0,.21-.26.2-.22-.36.1-.59.6-1.17.32,0,.3-.73.63-.83,1.53-.48.26-.19.95-.36,1.14-.46.54.24,1.22-1,1.16-.59,0-.71-1-1.42-.6-1.27.7,2.56,2.06,2.77,2.78-.44.37-1.21,1.59-.73,2.23,0,0,.21-.27.17-.2s.09-.17.11-.22,0,.53,0,.53.6-.19.66-.13c0,.36-.8,1-.78,1.11-.43-.79.15.36.14.37,0-.42.38,0,1,.19-.47.35-1.23,1.16-.71.57a3.1,3.1,0,0,1,2.12,1.2l-1.14.4c.29.88-.74.9-.47,1.74s1.64.38,2.22.21c.42,1.47.71,2.77,2.3,2.64-1,.21-1.34,1.66-2.54,2.33.32.94.26,1,1.58,1.37.48-1.89,1-2.05,2-2.1,0,.08.14,0,.1,0,.31.43.19.08.63-.18,0,0,.67.92.65.91-.12.42-.6.66-1,.9a4.41,4.41,0,0,0,1.93,1.82c-.24-.63-.19-1.46.47-1.51a1.23,1.23,0,0,1-.21-1.48c.79-.17,1.65.39,2.52,0,.5.82-3.63.63.35,2-.41.38-.24.59-.36,1-.16,0-.4-.3-.57-.35-.33-.62-.69-.73-1.2-.16.31.43.11.68,0,1.11-.21-.09-.2-.59-.49-.65s-.8-.24-1.23-.45c-.06-.09-.31.12-.38,0s-.2.58-.27.6,0-.62-.17-.68c-.09-.48-.6-.55-1-.41.24-.26-.37-.38-.46-.19-.06,0,0,.16,0,.14-.12-.43.22-.66.13-1.08-.18.28-1.07-.07-1.14.25-.11.17.44.58.35.72-1-.29-1.85-.65-2.25-.38-.11-.15,0,.43-.07.26-.85.45-1.54-.52-2.31,0,.55,0,.67,0,.88.62-.11.06,0-.23-.14-.16.46.13.27.76.58,1l-.19,1c-.47-.14-1.15-.22-1.49.15.29.29.48.82.68.9,0,.06,0-.31,0-.31-.11.23.17.63.15,1-.18,0,.84-.16,1,.19-.26.17-.33,1,.05,1.12-.14,0-.23-.56-.47-.62,0,0,.32.08.33.06s-.14-.46-.24-.32-.07.29,0,.34-.24-.25-.26-.29a1,1,0,0,0,.34,1.37c-.08.23.07-.39-.05-.3s.08.12,0,.12-.25.62-.34.54.06.26,0,.31a13.08,13.08,0,0,0-1.34.15c0-.23-.09-.87.1-.44-.11,0-.34-.15-.44-.12-.22-.13-.55.48-.7.22-.39.2-.57.3-1,.53a8.93,8.93,0,0,0-.89-.42c-.16-.92.91-2.17.67-3.08a16.46,16.46,0,0,0-2.19,2.22s-.48-.19-.48-.21c.11-.34,1-.59,1.12-1.15.11-.09-.09-.24-.06-.34a.93.93,0,0,0,.38-1.11c1.19.81,1-.61,1.27-1.26s1.24-.9.23-1.74c-.14.25-.5.44-.59.78-.3-.38-.24-.48-.55-.83.68-.69-.7-1.44-1.39-.84-1,.88,0,.88-1.73,1.08-.89.1-1.85.54-2.48-.3-.8-1.07.47-1.17,1-2.1-1.41-1.14-.4-1.27.07-2.59.09-.24-.05-.71,0-1a5,5,0,0,0,.18-1c0-.72-.37-.52-1-.32l-.42-.79c.55-.54.19-1.14-.51-1.06a4.11,4.11,0,0,1-.33-1.73c0-.61.22-.49-.23-1.09a2.53,2.53,0,0,0-.45,2.68,12.53,12.53,0,0,1,0,1.74c-.3-.26-.33-.74-.64-.54.19-.56-.29-.84-.6-1.23,0-.11.77-1.3.66-1.24,0,0-1.2-.46-1.2-.44-.71-.83-.64.16-.75,0,.16-.13-.7-1.25-.51-2a5.49,5.49,0,0,0,.58-.95c.06-.05.51.13.58.1s0,0-.06,0c.08-.2-.29.19-.27.09.13.15.31-.3.4-.11-.1-.72-.34-.62-.79-.39,0,0-.47.09-.48.07s.44-.1.4,0,.05.32,0,.38c.27-.26-.07-1-.26-1.43-.34-.73-.33-.2-.83.13,0-.13-.13-.61-.14-.75-2,.39-1.89-2.11-3.18-2.91-.05.46.63,2.5-.12,2.45.06-.06.06-.3.14-.38-.11-.13-.45-.1-.72-.1C25,36,24.6,34,23.59,35c0,.12.72.21.76.33.2,0,0,1,.2.92-.1.25.73.25.79.53-.05,0-1,.4-1,.46S25,37,25,37c.1.34-.23.77-.12,1.1s.58,1.45-.58,1.19a13.05,13.05,0,0,1-.8-2.62c-.28.29-.53.2-.81.5a10.55,10.55,0,0,0-.42-2.07c-.22.38-.31.48-.52-.13-.8.21-2.37,2.88-2.26,2.08-1.31,1.08,2.12.47,2.37.27.68,1.06-2.51,1.52-2.66,1.37-.09.11.16.26.09.37-.35.29-.09-.14-.06.27.05,0-.31.08-.26,0-.08.41-.28,1.16-.37,1.59-.35-.48-.52-.92-.85-1.41-.07.63-.14.52-.77.79-.52-.62-.49-1.66-1.39-1.31s.11,1.37.26,2c0,.12,0-.17,0,0-.25-.25-.82.32-1.41.88a2.18,2.18,0,0,1-.52-.78c.08-.1-.48.07-.41,0-.27-.5-.68-1.24-1.11-.49-.25.42.26,1.3.49,1.36A4.48,4.48,0,0,0,12.86,43c-.5.64-.1,1.77.6,2.74a23.78,23.78,0,0,0,1.45,2.7,5.21,5.21,0,0,1-.24.47c-1-.68-1.12-3.46-2.38-3.46a4.82,4.82,0,0,1,.8,2.35c-.14,1-.38.48-.73-.3-1.82,1,.42,1.45.6,2,0,.09.44-.21.35,0a2.5,2.5,0,0,0-2.28.37,3.26,3.26,0,0,0,1.34,1.32c0,.46,1.12,1,1,1.43-.24-.15-.51-.69-.76-1-.08,0-.14-.23-.23-.24s-.46.65-.53.61,0-.12-.06-.09c-.43-.14-.81-.41-1.17-.08-.63.57.43,1.65,1.11,1.17.06,0,0-.28,0-.31.07.22-.43.61-.48.94.15-.06,1.07-.76,1.23-.83a3.28,3.28,0,0,1,.67,1.48,2,2,0,0,1-.24,0c-.09-.27-.46-.06-.84-.18-.12.11-.22-.67-.32-.57-.17-.11-.57-.22-.69-.37a1.5,1.5,0,0,1-.89.68c-.11,0,.14,0,.06-.09s-.07.38-.09.33c.27-1.28-.43-2.67-.9-4,.11-.63-.36-.92-1.14-1.92.52-.3,1.59-.93,1.5-1.58-1.15,0-1.44-1.3-1.41-2.28L8,44.28c.72,0,.45-1.2.87-1.54.11-.05.43-.34.55-.39.73-.08,1,1.65,1.55.61.09.16.82.72.91.9.93-1.51-1.15-2.21-1.68-3.26s-1.28-1-.65-1.73c.36-.41,2-.72,1.29-1.55-.78.13-1.39,1-1.94,1.38-.13-.06.28-.19.23-.23s-.24.62-.25.61c2.19-1-.53-3.64-1.94-1.4-.26.41-.44,2.33-1.13,2.2-1-.18.31-2.19.52-2.68-.22.2-.82.3-1,.5,0-.09.27-.61.36-.84-.17.11-.33,0-.51.1-.5-.81.4-1,.57-1.82s-1-2-.87-2.73a15.6,15.6,0,0,0-.73,2.77c-.13.76.63,1.32.31,2.08-.6,1.47-1.66,2.58-1.42,4.15-.1-.09.07-.12,0-.21-.41.3-.22.73-.29,1.15a19.7,19.7,0,0,0-.73,5.2c-.13.35-.52.72-.61,1.07-.25.92.42,1.31.46,2,0,.32-.76.6-.78.82s.5.54.43.77l-.92-.28s.23.17.22.21-.23.13-.26.24c-.21.74-.13,3.77,1,3.5,0,.58.88,1,.61,1.65A9.73,9.73,0,0,1,.9,57.4l-.24-.27c0-.12.8-.89.75-1,.26.21.32.87-.32.15C1,56.34.58,55.9.57,56s.88.53.85.49c-.07.26-.3.43-.29.75-.11,0-.72.09-.79.15.14.41.69.83.93,1.31a2.63,2.63,0,0,0,.89,1.51s.26.46.43.31L2,59.71s.76.52.78.5c.58-1.87,1.11-3.09,1.7-1.6.18.06-.18.69-.13,1.41a2.41,2.41,0,0,0,.27,1.28c0,.1.22.08.24.17s.34.25.37.19l-.83-.24c0,.54.69.51.92.06.24.22,1.3,1.75,1.17,2.55-.16.13-.88-.37-1.29-.56a12.57,12.57,0,0,1-1.91-1.4c.09.31.36.25.41.61-.69-1.46-2-.92-2.6-2.58,0,.31.47.71.49,1.2,0,0-.91,0-.95,0s1,0,1.07.14c.09,1.56-.21,3.69.19,4.58,0,0,.32-.46.41-.47s1,1.73.57,1.92c-.47-.65.11-.68-.22-1a1.34,1.34,0,0,0-.47.8l.75.12c-.26,1.56.79,3.94,1.38,5.48.11.29-.55,1.87-.35,2,0,0,.42-.45.45-.43.24.57.46.93.5,1.08.27-.26.25.28.31,1.09-.13-.07.3,0,.17-.1s.14-.44,0-.66c.06.14-.52.57-.46.7s-.08-.4-.12-.43c-.38.66.32,1.77.9,2.06.09.2.07.11.14.26.19.62,1.06,1,1.34,1.66s.78,2.19.83.59c.08,0,.53,0,.64.05s0,.32,0,.46c0-.08-.14.15-.11.07a4.85,4.85,0,0,1,.49.37c.39.86.62,1.7.61,1.07.06.12.22.35.19.42.17.36,1.41.54,2.2,1.06.08.1-.15.59-.06.7s.35,0,.46.06c.5.32.51.83.74,1.29,0,.21.17.29-.08.49.31.45,1.26.29,1.6.68,0,.12-.15.5,0,.58.13.24-.3.7-.16.95.46.85,1.53,1.15,2.42,1.8-.07-.15-.48-.19-.5-.35.33-.15.61.35.35-.44,0-.12.14-.7.17-.81a5,5,0,0,1,1.53,2.42s-.45-.14-.46-.11a3.33,3.33,0,0,0-.48.28s1.07-.07,1.09,0-.41.13-.29.22-.28.61-.2.76c.06,0,.16-.18.12-.28,1,.59,3.52,1.67,5.51,2.61h-.33c.39.52.73,1.58,1.7.5-.09-.15,0,.54,0,.39.36.22,1.43-.39,1.63-.18-.31-.53-2.09-.83-2.3-1.56.12-.13.65-.09.75-.12s0,.16.11.15c.51.26.7.93,1.37.89,0-.07.26,0,.28-.1a4.23,4.23,0,0,0,.54.4s-.44.16-.51.08.13-.78.15-.94c.32.3.87.89,1.17,1.2a6.66,6.66,0,0,1-.49.59c-.24,0-.22-.19-.53-.14.61.68.58,1.23.76,1.41.08,0,.43.55.51.56s-.16-.82-.14-.84a8.5,8.5,0,0,0,1.05.42c.35.14,1.73.6,2.24.73-.5-.79-2-1-2.4-1.92,0-.09,0-.18,0-.31.38.07,0-.43.27-.47-.29-.39,0-.58-.33-.92.55,0,1,.52,1.55.61.19-.55,0-1.25.27-1.49-.14,1.72,4.24-.62,2.08,1.7.56,0,4.59-.5,3,1.15-.63.67-2.17-.07-1.63,1.46.17.5.93.82,1.33,1.13.43.53,1.54.51,2.17,1a6.69,6.69,0,0,0,3.06,2.15c.79.25,1.66,1.34,2.33,1.5s1.3-.48,2-.38a4.12,4.12,0,0,1-.85-.58c.15-.15.55.29.74.25a.33.33,0,0,0,.28,0,9.53,9.53,0,0,0,2.35-.2c-.2-.48-1.33-1-1.8-1.16a.75.75,0,0,0-.33-1.36c.36-.88,1.19-.37,1.77-.69.36-.2.36-.9.71-1.18-.37,0-.17-.18-.57-.32-.08,0,0-.89-.28-1s-1,1.15-1.29,1.09c-2-.44-.93-1.51.12-2.21-.47-.89-2.8,1.77-4.1,1.14-2.32-1.12.12-2.09.71-3,.34-.23.71-.22.88-.36s.39-.25.52-.22c-.12-.37-.57-.08-.93-.27,0,0-.09-.42-.13-.41s.79-.15.86-.22c-.13-.17-.87-.08-1.14-.16a1.7,1.7,0,0,0,0-.22c-.13,0-.17-.54-.25-.53s0,0-.13,0-.06.05-.14-.07-.42-.58-.4-.75c.51.29.62.88,1.21.9A.94.94,0,0,0,42.81,91c0-.11-.17-.6-.12-.71a3.09,3.09,0,0,1,2.66,1c.82.65,1.82,1.9.59,2.37.12,1.24.39-.2,1-.42a3.33,3.33,0,0,1,2.56.14c.56.18,1.39.09.75,1-.13.19-.35,1-.66,1-.6-.29-.73-.82-1-.64,0,0-.31-.88-.29-.86s.23.49.17.49c.33.92.88.91,1.67,1,.18,0,.29.54.47.56s.59-.48.74-.41.06.77.31.87c-.08,0-.12-.16-.19-.13s.22.48.44.42c.36.34.72.18,1.17-.07.27,0,0-.16,0-.38l.05.3c.14.28.82-.22.94.06.42-.63,1.14-.69,1.65-1.09s.9-1,1.44-1.29c.17,0,.56.38.74.33,1.35-.33,3.47-.84,4-2.35-.44.44-.11.24-.46-.14.2-.16-.1-.17,0-.23-.46-.6-.14-.58-.28-.88a12.41,12.41,0,0,1,.29-1.79c-.44,0-1.12,1.1-1.32,1.62-1.12-.58.2-2.63.12-3.63s-1.08-1.89-1.89-2.73c-1.25.67-1.21,2-2.79.75-.11.51-.44.14-.94.23s-1.09.21-1.35.18a13.19,13.19,0,0,0,2.2-1.84c-.07-.74-1-.57-1.4-.2,0,0-.08-.07-.09-.09-.15.14-.64,0-.58,0s.38,0,.34.15c-.36-.41-.5-1-.87-1.29-.14-.1-.65.2-.77.22-.78-1-1.26-2.21-2.28-2.39,0,0-.51.57-.48.55-.3-.67-.38-.77-.82-.28,0,0-.32.42-.33.42-.66-.52-.81-1.32-1.48-.69a4.88,4.88,0,0,1,.48,1.34c0,.09.82.11.83.2s-.26.16-.26.21c-.08.89-1,.5-.2,1.24.37.36.09,1,.4,1.07.19.26.3.48.55.83a1.08,1.08,0,0,0,.32.64c.09.09.69-.25.84-.23,1,1.49,2,2.87.65,1.72.07-.48-.9-.3-1.5-.56,0-.17.06-.4-.38-.23,0,0-.14.06-.13.07-.43-.13-1,.1-1.46,0,0-.06.06-.11,0-.08a8.77,8.77,0,0,1-2-.71c0-2.14-4.85.53-5.54-2.26.74-.45,2.4-.07,1.72-1.11-.09,0-.21-.55-.29-.55.77-1-1-1.64-2.14-2.16.19-1.54-.84-.88-1.82-1.08a3.08,3.08,0,0,0,1.36.89c.06.08.28,0,.4.13-.2.21-.43.43-.62.66A1.48,1.48,0,0,0,36,79.81c.2.44,1.14.85,1.46,1.16,0,0-.11.31-.11.34-.37,0-1.24-.61-1.46-.49-.63.34.43,1.14,1,1.14-.74,1-1.75-.48-2.65-.58-.5-.06-1,1.2-1.59,1.14s-1-.81-1.45-.91-1.43-.31-2.05-.49c-.15-.07-.15-.21-.28-.3-.34-.34-.42-.16-.3-.39.15.07.18-.18.25-.2-.11-.09-.14-.09-.21-.15.2-.22.67.06,1.06.11-.09-.2-.55-.29-.69-.45-.19.1-.84,0-1,.1-.27-.68.64-1.42,1.14-1.8-.51-1-1.32-.38-1.9.06,0,0,.29.69.28.7s-.34-.52-.41-.45c-.28.13.12.36-.15.85-.13.22-.31.32-.3.54s.37,0,.43.39c0,0-.92,0-.94,0-.2.38-1.11,1.61-1.55,1.51-1.35-.32.21-1.25.27-1.78-1.42,0-1.26.68-2.11.63-.36-.19-1,.36-1.36.17-.08-.44,1.29-1.48,1-2.11-.57,0-1.31.69-1.73,1a9.42,9.42,0,0,1-1-.58c1.31-1.21,1-.27.35-.29,0-.17,0-.14,0-.25-.18,0-.22,0-.41.08-.05-.07-.21-.06-.22-.18,1,.49,1-.49,1.81-.7A10.93,10.93,0,0,1,18.92,75a7.93,7.93,0,0,0,2.26.41A8.27,8.27,0,0,0,21,72.7c1.87,1.5,1.57,1.71,3.25,3.88-.17,2.29,6.84-.43,6.19-1.54-.76-.7-2,1-2.14,1.39A3.07,3.07,0,0,0,27,75.91c.25-.27.95-.64.33-.47-.29-.68,1.92-.49-.22-1.11-1.11.62-.24.57-1.46.86-.18-.42,1-2.08,1-2S23,71.35,25.18,71.36c-.11-.43-2.93-1.3-3.11-1.45,2.57,1.32.81-2.32.29-2.72.15,0,.09.46.22.5s.14-.13.16-.09.24-.7.25-.71a4.71,4.71,0,0,1,2.16,1.19c1-1,.3-2.31.83-2.82.35.39.45.49.2.6,0,0-.48-.65-.49-.65.16-.14,1.14.19,1.54.18-.33-.5-.36-.72.06-.41-.77-2.09-1.38,2.45-1.77-1.54.38,1.34-.05.2-.15-.21.71.83,2,2,2,.72a2.37,2.37,0,0,1,1.6.56c3.14-.11.65-.29-.44-2.12.32-.29.5-.32-.11-.21-.13.22-.93.28-1,.42-.31-.69.15-2.08.74-3.14.53,1,3,5,3.7,5.07a17.72,17.72,0,0,1,.37,1.85c1.13.42.5-3.54-.66-3.36-.09.22.68,1.13.7,1.22a9.21,9.21,0,0,0-1.4.59c-.51-.75-.39-2.62-.24-3.47,1.24.51-.12,1.73,1.28,1.51a33,33,0,0,0-1.53-3.64c.92.75,1.72,2.2,1.54,2.61.14-.17.28-.74.43-1,.44-.07.71,3.57,1.38,2.77.12.23.45-1.81.69-3.05,0,0-.86-.35-.83-.33s.66,0,.61,0c.1-.41-.17-.72,0-.85,1.57,2.65-.13.24.5,1.93.68-.58.47.26.79.55.49-1.54,1.6.22,1.87-.38-.24-.79-1.59-2.25-.57-3.33.12-.06-.09-.41-.1-.48s-.1.13.06,0c0,.42.37,3.56,1.45,3.39-.36.41-.41.72-.71.76.26.07,0-.51.28-.67,0,0,.55.77.54.83s-.68-.12-.79-.05c.13.09.56.1.61.18s.22.59.23.7c-.24.23-1.87,0-2.2.12.38.33,1.32,1.15,2,.93s.64-1,1.2-1.37c.09,0-.09-.66,0-.6.14-.1.47.68.64.62s-.11,0-.07,0,.62-.11.65,0c.16.46-.56,1-.91,1.32.2,0,.93-.23,1.14-.2,0,0-.69.5-.68.59s.48,1,.48,1.25c-1.45.2-.22,1.21,1.07,2,.05.06-.28-.32-.27-.29-2,1.56,1.79,3.72,1.42,4.09-.49-.15-.88.17-1.27.52a4.44,4.44,0,0,1,1.44.59c-.31.16-1.35,1.1-1.61,1.26a2.08,2.08,0,0,1-.41-.88c-1,.26-.8-.18.15.42-.22-.15-.55.13-.77.13-.2-.23-.73,0-.81-.26s.37-.26.2-.23a3.64,3.64,0,0,1-.42-.63c.88-.67,2.31-2.23,1.72-1.75-.15-.18-.81,0-1.12,0-.84-.76-1.48-1.87-2.77-1.5a2.91,2.91,0,0,1,.71,1.06c-.93.13-1.23.61-2.18.3a1.52,1.52,0,0,0,.76,2.19c.48.3,1.35-1,1.39,0-.1.06.2.72.13.8s-.21-.66-.13-.59a3.54,3.54,0,0,0-.56.25c.23.27,0,.93.24,1.26-.11,0,.31-.52.21-.49-.65.16-1,0-1.5.42.65,1.11,1.87.22,2.55,1.4.39-.45.55,0,1,.21.1.09.44-.63.52-.64s-.26,1-.17,1.07a1.49,1.49,0,0,0,.76.2s.48-.6.51-.59c.42.55.72,1.36,1.28,1.43-.08-.34-.53-.56-.67-.91l.67-.47c.46.2.71.34,1.19.11,0-.09.2-.24.18-.34.19.08.28.36.47.42,0-.55-.69-1.08-1.06-1.43a1.66,1.66,0,0,1,2.41.34c.2-.24.09-.53.08-.85-.26-.1.07-.28-.1-.37,1.35-.61,1.42-1.56,1.15-2.73.23.19,3.68,1.49,2-.17-.15.13.28.4.16.55a2.61,2.61,0,0,1,0-.77s0-.18,0-.28c.27-1,1.1-2.82-.66-2.08-.2.09-.23.65-.34.8a13.25,13.25,0,0,1-2,.26c.27-.08.48-.59-.19-.29-.08,0-.15,0-.23-.06-.3-.72.32-.89.65-.91a12.66,12.66,0,0,0-1.1-1c0-.19-.22-.58-.25-.75a2.39,2.39,0,0,1,1.11-.08c0-.42-.47-.34-.4-.67-.41-.67-1.31.27-2.08.7,0,0,.29-.76.27-.8a4.83,4.83,0,0,1-.16-.5c.05,0-.41.31-.34.3s.43-.59.58-.45c0-.11-.07.35-.09.26.51,0,.61-.27.89-.9-.06-.16.44,0,.33-.26.26,0,.06-.57.4-.61C47,63,46.32,63,46,61.57c.64-.2,1.62,1,2.21,1.35.11-.59-1-2-1.35-2.67a2.19,2.19,0,0,1,.28,0c.38.08.86-.22,1.2-.31a14.29,14.29,0,0,1,3.49,1.32c-.06-.21,1.47-1.61,1.57-1.51-1.15.78,2.39-.27,1.93-.82-.26-.07-.77-.1-.66.19a3.4,3.4,0,0,1,.57-1.82c0,.17.23.42.29.66.9-.21.79-.78.59-1.21.22.34.33.51,1.1,0-.92-1.64.35-3.38-.54-5.07-.34.22-1-.13-1.07-.51,1.49-.25.79-1.08-.36-1.54,0,0-.14.13-.21.13-.56-.18-1.47-.68-1.87-.22,0,0,0-.22-.07-.16a3.46,3.46,0,0,0-.76.7l1,.72c.17-.31-.4-.76-.41-.79s-.31-.9-.64-1.08a11.49,11.49,0,0,0,4.9-.47c.13,0-.05-.36.06-.38.18.31.33,1.11.62,1.29,1,.62.87-.55,1-.71.19-.35-.17-1.12.11-1.37.07,0,.14.06.3-.18V47c.32-.25,1-.1,1.32-.35a2.91,2.91,0,0,1,.54-.19c-.35.36.16.35.8.34-.62.24.06,1.3-.05,2.07a5.43,5.43,0,0,0-.73-.32c-.1-.65-1-.75-1.68.07.32.31.69,1.28,1.39,1.69-.08,1-1.17.24-1.19.27.31.29-.73,1.95-.72,2a7.05,7.05,0,0,1,2.65.79c-.57.8,2.51,3.19,2.69,2.88-.55.55-.14.33-1,.77.51.95.71,0,.57,1-.16.07.66.33.66.53A5,5,0,0,0,65,60.36c.26-.49.3-1.59.65-2.09.7.76.78,1.14,1.63,1.18.46.48,1,.89,1,.78.3-.06.58-.64.86-.74.27.45.13.78,1,.67.61-.09,1.13-.83,1.93-.14.1,0,0,.11.09.12.79,1.16,1.75.84,1.26-.43-.08-.22.43-1.07,0-1.38a5.82,5.82,0,0,1,.91.73c-.23-.58-1.13-1.49-1-2.1.24.41,1.11,2.66,1.84,3.18s2.39.32,2.19-1c-.07-.44-.75-.76-1.1-1.12,0-.06.18-.41.12-.48s-.08.15-.1.16.12-.05.1-.14.28,0,.28-.07-.58-1.13-.25-1.34c.16.11.59,1,.74,1,.5-.71,0-1.68-.42-2.14-.1-.11-.43,0-.6-.12a21.91,21.91,0,0,0,0-3.43c.56-2,4.32,1.32,4-2a16.43,16.43,0,0,1,2.73.59c-.36-1.36-2.09-.45-1.65-1.87a1.33,1.33,0,0,0,1.09.51,7.17,7.17,0,0,1-.24-1c.07-.11.11.12.14,0,.09.13-.34.16-.23.42s.61.38.74.33c.3.71.58,1,1,1,.21,0,.61.11.77,0A42.2,42.2,0,0,1,86.9,53c0,.17-.23.4-.2.61.07.68-.11,2.55.83,1.75.17-.14.43,0,.44-.32.84-.51,1.54-1.2,2.22-.79.41.76-.24,2.37.39,3.1.46-.21.13-1.15,0-1.56,0,0,.66-.28.67-.32.53.41,1.37.7,2,1.1.33-.71.09-1.87-.43-2.08A7.51,7.51,0,0,1,92.17,53c.4.47,1,2.22,1.84,1.44a19.76,19.76,0,0,1-.15-4.18c.18,0,0,.39.13.42a2.89,2.89,0,0,0,.81,0,.85.85,0,0,0,.8-1.24c-.17-.55-1.54-.76-2.11-1.29A6.89,6.89,0,0,1,94,46.66c.44.34.63.79,1.16.91a7.18,7.18,0,0,1,0-1c.22-.42,1-.92.94-1.63.09-.09-.26-.16-.27-.1A1.38,1.38,0,0,0,95,43.33c-.16-.62.1-1.57-.15-2.19,0-.17-.25-.14-.25-.32,0,.06.27-.42.24-.35,0-.1.23.28.19.18s-.21-.53-.31-.54c-.09-.2-.45-.11-.55-.3a1.35,1.35,0,0,1,.19-.49A.87.87,0,0,0,95.09,38c.12,0-.07.33,0,.37,0-.36-.57-1-.88-1.63C94.18,35.68,92.6,34.43,92.17,33.81ZM44,41.09a.75.75,0,0,0,0-.15s.39.12.4.14ZM54.62,56.61l-.07-.06.17-.31Zm-2.27-6.77-.08-.15c.08,0,.5.21.52.24S52.38,49.81,52.35,49.84ZM64.62,58a2.05,2.05,0,0,1,.23-.2A.9.9,0,0,1,64.62,58Z"/></g><g class="e"><path class="f" d="M105.14,56c.45-.73.27-6.76-1.33-9.12-3.55,2.47-1.8,12.31-.57,16.7.85-.31,1.46-4.93,2.18-4-.72,0-.93-.24-.65-.83a3.43,3.43,0,0,1,1.1.42,9.35,9.35,0,0,0-.73-3.13C105.2,55.88,105.52,56.51,105.14,56Z"/><path class="f" d="M102.15,47.24c-.41.2-.49,1.58.17,1.72.6-3.49.09-3-.62-6,.94,0,1.41.71,1.94.33a8.45,8.45,0,0,0-1.26-1l1.23-.06c-.46-2.4-2.87-2.68-2.25-5-1-1.42-1.82,1.76-1.42,1.38-1.26-.74-2.13-5.33-5.2-5.48,1.05,4.62,6.29,10.75,7.41,14C102.16,47.23,102.13,47.18,102.15,47.24Z"/><path class="f" d="M84.92,44.73c-1.55,2.85,3.93,7.84,5.17,4a2.14,2.14,0,0,0,1.36,1.08,17.17,17.17,0,0,1,1.19-2.48c2.78,3.69,2.25-8.26-.8-4.62.32-2.35-3.17-8-6.44-6.6a2.7,2.7,0,0,0,1.84,1.45l-.82.54c1.87,0,3,2.72,2.58,4.46.8.07-3-2.06-2.09-1,0-1,.13-2,0-3,0,0-1.9,1-1.72.65a15,15,0,0,1,1.14,2.86c-.38.22-1.89-2.11-2.09-.69-.06.43-3,3.93.64,3.34C84.25,46,84,44.89,84.92,44.73Z"/><path class="f" d="M96.7,53c.09,0,.21,3.36.22,3.34-.86.58-1.51.32-1.93-.77-.73,1,2,4.22-.73,3.93C93,55.12,88.14,58,86.39,56.16c.21-.14,1-.56.8-.95-.7,1.66-2-.53-2.34.85-.15-.21,1.7,4,1,4.44a1,1,0,0,0-.82-.39,2.83,2.83,0,0,0,.51-1.48s-2.07,3.51-2,4l.87-.35c-2.14-2.42-.33-1.71.16-5.69-.67.51-.93.49-.79-.06-1.09.47-2.15,1-3.2,1.54a2,2,0,0,0,1.14-1.23c-1.39,0-1-.26-.83-1.73a2.09,2.09,0,0,0,2,0,1,1,0,0,0-.68-1.35c.45-.09,1.43.21,1.91-.72-1.08-.36-3.31-.82-3.48-3a1.41,1.41,0,0,0-1.57,1.11c.67-.11-.82-3.66-.8-4-1,0-3.74.48-2.89,2.33-1-1.46-1.68.76-1.61,1.39-1-.69-2.61-1.85-3.17-2.32s-1.1-3.92-2.06-2.72c-.1-3,1.17-3.23-1.27-5.4,1.19-.81.86-2.79-1.32-3-.21,2.25.8,1-.93,1.6a1.82,1.82,0,0,1,1.12-1.5c-1.42.88-1.93.37-1.54-1.55-3.91-.11,3.09.55-.33-1.1a10.35,10.35,0,0,0-2.7,2.58c-.64-2.2-2-.59-2.06-2.4A2.27,2.27,0,0,1,58,37.19a2.07,2.07,0,0,1,.69-2.34c-6.13,1.53.07-1.83-2.16-2.17a9.77,9.77,0,0,1-1.42,2.44c-1.7-.19-4.47,1.39-5.62,1.54,2.27-.3.1,5.48.08,5.41a.88.88,0,0,0,.4-.29c-.32.53-.15.74.51.64,0-.07-1.12,1-1.15.6.06,1,1.66.7,0,1.39.47-.72,1-.11,1.55,1.84-.86,0-2.16.15-2.23,1.4,0-.34,3,4.29,3.1,4.31-1.82-.31-4.42,1.41-2.19,3.09,1.15-1.63,2.09-.91,3.28-1.1.13,2.4-2.34.48.15,4,0-2.82,2.12-1.72,3.59-1.71a3.26,3.26,0,0,1-1.66.48q2.22,1.2.58,2.31c-1.42-.57-.63-1.8-1.84-.09-1.18-1.16-.67-1.33-2-1.31A2.6,2.6,0,0,1,51,55c-.39.28-.81.41-1.07.61-.42-.33-3.37-2-4.18-1.84,2.6,1.19-1,2.12-1.23,2.23.41,1,1.21,3.14.5,2.62.59-.07,0,.18-.11-.27-.21,1.49-.25,1.86-.12,1.1-.48-.17-1.58,1.72-1.67.05a5.63,5.63,0,0,1-2.8-.9c.6-.85,1.17-1.72,1.7-2.62q-2,2.48-3.16.89c.76-.92,5.6-2.43,4.69-4.12.43-.37-3.37-1.3-3.39-1.32-2.6-3.53-1.14.19-1.28-4.26-.09-2.88,2.57-4.44,1.55-8.33-2.09,1.08-.71,3-2,3.93-.79-1.48-1.16-6.53.54-6.56-.59-.29.11.12.09,0A1.13,1.13,0,0,0,38,35.36c.43,0,.5.13.21.44.92-.37-1.93-5.79-2.25-6.22a2.92,2.92,0,0,1-1,2.23c-.1.06-.1-3.47-1.31-2.95-.06.28,1,1.89,1,2.3-.37,0-.74,0-1.11.05.43.36.36,2.63-.69,1.9,4.13-4.69-4.41-3.69-3.83-3.31a6,6,0,0,0,2.31.58c-.19-1-3.8,1.42-4.28,2.18-.05-.18-1.4-2.9-2.06-2.9-1,0-.42,1.61-.41,1.93.38.86-3.26-1.47-3-1.67-1.45,1.17-.3,8.35-1,8.57a9.6,9.6,0,0,0-.93-4.09c.55,1.33.36,2.27-.56,2.84.14-1.12-.21-1.25-1-.4,0,0,.71,2,1.09,1.65-4.24-3.62-.61,2.26-1,2.93-.39-.52-1-2.22-2.23-1.75,0,0,.19,1.46-.07,1.91,1.1,0,2.13-1.27,1.5,1.3-1.26-.16-1.1-1.29-2.56-1.53.18-.13.15-.05-.1.21,2.1-3.28.13-7.84,1.45-9.82.77.36,3.39-2.75,3.69,1.05,1.31-1-.54-4-.53-5.17,0-.38,5.4-2.45-.35-.73.47-.25.42-.13-.15.35,5.92-.23-5.43-1.88-3.09-.39a2.38,2.38,0,0,1,1.43-2.3c-1.5.61-.54-3.4.34-5C13.13,24.61,10.71,32,7.24,36.7l-.75-.6c-.69,1,.15,5.08-.55,5.79A1.12,1.12,0,0,1,4.79,41c0-.24,1.64-.92,1-.19l-.72-.92c0-.2-.63,5.25.23,4.95-.1-.32-.19-.64-.29-1,.57,1.33,1.25,1,2-.85.55-.32,0,4.09.21,3.86-1-1.39,1.14,1.23.31,2.66-1.53.46-1.54-4.43-2.07-2.28A23.81,23.81,0,0,1,4.1,43.9c.41,1.33.13,1.65-.86,1,0,.19-.24,6.57-.16,6.57a4.61,4.61,0,0,1,.17-1c.24-.06-2.1,7.79-1.82,8.33-.33-.63,1,2.28.73,2-.12-1.24.14.22-.42-.58C.11,61.5,7.45,77,7.29,77.72c.65,0,.33-.12.92-1,2.16,3.47.84,2.69-.39,2.62l1,.35a.91.91,0,0,0-.79.73c-.31.06,6.69,5.83,6.76,6a11.6,11.6,0,0,1-1.55-2.3c.92-.42,1.7,1.94,2.35,2.25-.72,0-.72-.29,0-.92.46,1-1.29,3.25,0,3.88.61-1.36,1.64.6,2.77,1.45-.13-.71-.72-3.74-.92-4.26,2.68,1,3.4.82,6,3.45-2.52-2.53-.05,4.81,0,5,1.43,3.15,3,4.27,5.6,5.77-1.18-1.57,1.21.31,2.51.4A8.06,8.06,0,0,1,32,97.93c-.05.24,2.39-1.3,1.22-2.23a12.07,12.07,0,0,0-1.57.53c-1.09-1.2-.78-1.87.9-2-.07-.68-6,.74-4.66-1.81.36-.7,3-1.74,3.72-1.21.07-1.84-2,.05.14-.91-.4-1.39-2.73-2-.46-1a4,4,0,0,1,.1-2c1.81.46,3.36,3.73,1.91,4.77,1-.73,3.06.12,3.83,1.13a2.13,2.13,0,0,1-1.32,1.41c-1.42-1.56-.1-.71-.62-1.87,1.92,1.11,1.43,3.4,3.39,4.29.39.18,8.59.36,9.64-.85-1.26.57.84-3.25.63-3a2.75,2.75,0,0,0-1.78,1c.93,1.09-.5-7.77-.12-6.29a39,39,0,0,1-4.28-1.07,13.05,13.05,0,0,0,2.66-.91c.3-1-1.36-.56-1.78-1,.56-.4-3.25-6.21-4.93-5.54-.42,1-.2,1.6.65,1.91-1.28,3.21.27,3,.63,6.28-.33-3-9.71-4.39-9.26-7.9,3.4-.59,1.84-3.92-.57-5.48a3.93,3.93,0,0,0,1.25,1.59c-1.72.84-.63-1.07-2.33-.66.19,4,1.65.64-.45.89-.4.59-.25,1.06.46,1.41-2,1.24-8.75-5.84-6-4.31a1.37,1.37,0,0,0-1.44-1,1.93,1.93,0,0,1,1.68-1.25c-.23-2.3-2.5.63-2.62,1.19.36-.39-3,.34-2.81.48-.32-.82,0-1.34.88-1.55-.61-.27-3,.07-3.45-.54a7.69,7.69,0,0,0,1.69-1.58c-1.26.78-2.14.58-2.64-.61,2.22-.88-.33.23-.07-.71a1.79,1.79,0,0,0,1.9,0,11.33,11.33,0,0,1-1-3.24A8.06,8.06,0,0,0,17,65.54,7.77,7.77,0,0,0,17.78,63C19,65,18.75,67.66,20.42,69c.56.46,5.35.84,5.16-.43.1.22-3.31-.43-3.42-.43.09,0,1.36-.64,1.39-.71C24,66.38,21.37,67,21.19,67c-.06-2.18,1.48-.32.6-3-.36-1.11-1-1.42-2-3.29,2.18,2.52.46-2.55,1.26-1.87-.47-1.12,1.87.76,2.21,1.3A10.46,10.46,0,0,0,25,57.88c0,.89-.06.84-.24-.16-.09,0,1.94,1.07,1.53.38.06-2.62-2.32,2.48-1.06-2.09-.12.82-.14.74-.06-.25.11.33,3.52,3.59,4.27,2.9,0,0-.93-4-2.18-2.73a4.46,4.46,0,0,1,1.79-2.65c.27,2.88,1.36,5.18,1.25,7.94.49.44,2.09-3,.59-3.37a4.34,4.34,0,0,0,.21,1.39,9.27,9.27,0,0,0-1.49,0,6.26,6.26,0,0,1,1-3.31,2.26,2.26,0,0,0,.63,1.87c-.09-1.31.05-2.62-.1-3.94a4,4,0,0,1,.48,3c2.39-1.32.29,2.7,1,2.29-.13-1.28,2.43-1.68,1.08-3.19.56.41.86.21.88-.59,0,.13.16,5,2.14,3.11a15.92,15.92,0,0,1,.74-3.79c-.67.2-.44,3.71-.26,3.67-.81,1.55.45,0-.06,1.76a9.92,9.92,0,0,1-2.05-.7c.7,1.38,4,1.87,3.23.19-.1,0,1.79,1-.39,1.9.46.23.4,3.17.4,3.73-2.83.83,1.16,3.32-1.51,4.34A4.34,4.34,0,0,1,38,70.68c-.64.17-1.28.37-1.92.58-.3-.74-1-1.79-.07-.53a1.67,1.67,0,0,1-1.4-.7c.58-.61.81-1.39,2.31-1.87a21,21,0,0,0-3-2.85c.74,1.76-.86,1.53-1.83.72-1.85,1.53,2,3.12,1,3.63.55.41-2-2.69-.73.69.77-.61.39-.78-1.16-.54.32,2.07,2.51,2.17,3.36,2.39C35,72.87,34.3,74.11,36,75c.22-1.68,1.08-1.28,2.1-.42-.18.59.76-4.59,1.62-.52a7.51,7.51,0,0,0,2.44-3.26A5.71,5.71,0,0,0,44,72.29c-.57-.12.84-1.5,1.36-2.69-1.68,3.86-5.4-5.87-2.26-3.52.8-1.54-2.23-.9-2.27-.89-.46-.88,1.54-.8.14-1,.78.76,3.54-1.65,3.63-2.37a4.41,4.41,0,0,1,1.53,2.07,7.75,7.75,0,0,0-.27-3c.09,0,8.67,3.26,8.22,1.87,3.3,2.34,3.12-13.56,1.08-8.26a7.35,7.35,0,0,0-.29-2.12,23.27,23.27,0,0,0,4.84,1c-.36,1.08-.07,1.63.87,1.67,2-2,1.31-2.13,3.84-1.17a2.78,2.78,0,0,0-.79,1.91,1.59,1.59,0,0,0-2.11-1.12c1.71,3.84-1.4.67-1.89,3.48,1,.16,3.73,5.25,3.57,5.38-1.34.6-1.06,2.2-.76,4.14,3.17-2.78,3.6,3.26,7.33,3.46,1.49.08,0-4.09,1.61-1.26a5.35,5.35,0,0,1-.16-2.32C71.4,68.79,71,71.85,73,72c2.43.15-.64-5.36,1.65-2.75,1.89-1.27-1.41-3.79,1.87-5.73,1-.56,5,0,5.9,1.22a3.33,3.33,0,0,1-.83-2.35c.3,2.66,1.14-.21,1.1-.14.15.76,2,6.49,2.18,6.93,1.36,3.09.83-.43,2.76,2.13a15.51,15.51,0,0,0-.75,3c2-.08-.7-4.25,2.75.27,1.2-1.16-.18-2.38.26-3.73a1.66,1.66,0,0,0,1.17,2,19.5,19.5,0,0,1,1.35-3.94c-.14,0,1.73,2.43,1.91-.16a9.58,9.58,0,0,0-1.47-2S98.6,60,97.87,58c-.07,0-.9-3.78-1.17-4.95C96.64,53,96.87,53.76,96.7,53ZM50.09,42c.08-.13.82.26,0,0Zm4.17,18.34c-.44-.17,1-.46,0,0Zm.34-7.13c0,.18.7-.12,0,0C54.6,53.23,54.64,53.25,54.6,53.25Zm8.28,12.14a1.9,1.9,0,0,1,.28-.1A.77.77,0,0,1,62.88,65.39Z"/></g></g></svg>